<?xml version="1.0" standalone="no"?><!DOCTYPE svg PUBLIC "-//W3C//DTD SVG 1.1//EN" "http://www.w3.org/Graphics/SVG/1.1/DTD/svg11.dtd"><svg class="icon" width="200px" height="200.00px" viewBox="0 0 1024 1024" version="1.1" xmlns="http://www.w3.org/2000/svg"><path d="M115.222575 131.476543h789.942857c36.481129 0 65.738272 23.116755 65.738272 51.651499S941.285362 234.779541 905.165432 234.779541H115.222575c-36.481129 0-65.738272-23.116755-65.738272-51.651499s29.618342-51.651499 65.738272-51.651499zM115.222575 462.335097h789.942857c36.481129 0 65.738272 23.116755 65.738272 51.651499s-29.618342 51.651499-65.738272 51.651499H115.222575c-36.481129 0-65.738272-23.116755-65.738272-51.651499 0-28.173545 29.618342-51.651499 65.738272-51.651499zM121.362963 791.748854h784.524868c36.119929 0 65.377072 23.116755 65.377072 51.651499s-29.257143 51.651499-65.377072 51.651499H121.362963c-36.119929 0-65.377072-23.116755-65.377072-51.651499s29.257143-51.651499 65.377072-51.651499z"  /></svg>